<svg xmlns="http://www.w3.org/2000/svg" width="96" height="96" viewBox="0 0 96 96" fill="none">
  <g stroke="#ee2b21" stroke-width="4" stroke-linecap="round" stroke-linejoin="round">
    
      <circle cx="48" cy="48" r="13"/>
      <path d="M48 13V25M48 71V83M13 48H25M71 48H83"/>
      <path d="M23 23L31 31M65 65L73 73M73 23L65 31M31 65L23 73"/>
      <path d="M48 30L54 34L60 32L64 38L62 44L66 48L62 52L64 58L60 64L54 62L48 66L42 62L36 64L32 58L34 52L30 48L34 44L32 38L36 32L42 34L48 30Z"/>
    
  </g>
</svg>